<svg xmlns="http://www.w3.org/2000/svg" viewBox="0 0 900 650">
  <defs>
    <style>
      .title { font-family: Arial, sans-serif; font-size: 20px; font-weight: bold; fill: #1e40af; }
      .subtitle { font-family: Arial, sans-serif; font-size: 14px; fill: #475569; }
      .label { font-family: Arial, sans-serif; font-size: 12px; fill: #1e293b; font-weight: 600; }
      .text { font-family: Arial, sans-serif; font-size: 10px; fill: #475569; }
      .zone-label { font-family: Arial, sans-serif; font-size: 12px; fill: #64748b; font-weight: 600; }
      .cve-label { font-family: monospace; font-size: 10px; fill: #dc2626; font-weight: bold; }
      .service-text { font-family: Arial, sans-serif; font-size: 10px; fill: #1e293b; }
    </style>
  </defs>

  <!-- Title -->
  <text x="450" y="30" text-anchor="middle" class="title">Microservices Architecture</text>
  <text x="450" y="50" text-anchor="middle" class="subtitle">National Identity Verification Platform (AWS Cloud)</text>

  <!-- Internet -->
  <rect x="50" y="80" width="800" height="60" fill="#f1f5f9" stroke="#cbd5e1" stroke-width="2" rx="8"/>
  <text x="70" y="100" class="zone-label">INTERNET (Citizens, Partners, Mobile Apps)</text>

  <!-- AWS Perimeter -->
  <rect x="50" y="160" width="800" height="60" fill="#fed7aa" stroke="#fb923c" stroke-width="2" rx="8"/>
  <text x="70" y="180" class="zone-label">AWS PERIMETER</text>
  <text x="450" y="200" text-anchor="middle" class="text">AWS WAF + Application Load Balancer • DDoS Protection • Rate Limiting</text>

  <!-- API Gateway -->
  <rect x="250" y="240" width="400" height="50" fill="#fef3c7" stroke="#d97706" stroke-width="2" rx="6"/>
  <text x="450" y="260" text-anchor="middle" class="label">KONG API GATEWAY v2.8</text>
  <text x="450" y="275" text-anchor="middle" class="text">OAuth 2.0 • Request Routing • Rate Limiting</text>

  <!-- CVE Label on Gateway -->
  <rect x="680" y="248" width="110" height="18" fill="#fee2e2" stroke="#dc2626" stroke-width="1.5" rx="3"/>
  <text x="735" y="261" text-anchor="middle" class="cve-label">CVE-2024-8912</text>

  <!-- Kubernetes Cluster -->
  <rect x="50" y="310" width="800" height="260" fill="#dbeafe" stroke="#3b82f6" stroke-width="3" rx="8"/>
  <text x="70" y="330" class="zone-label">KUBERNETES CLUSTER (EKS) • Istio Service Mesh (mTLS)</text>

  <!-- Microservices Row 1 -->
  <g>
    <!-- Identity Service -->
    <rect x="80" y="350" width="140" height="80" fill="#f0f9ff" stroke="#0284c7" stroke-width="2" rx="4"/>
    <text x="150" y="368" text-anchor="middle" class="label">Identity Service</text>
    <text x="150" y="382" text-anchor="middle" class="service-text">Java/Spring Boot</text>
    <text x="150" y="395" text-anchor="middle" class="service-text">3 pods</text>
    <rect x="95" y="405" width="110" height="18" fill="#e0f2fe" stroke="#0284c7" stroke-width="1" rx="2"/>
    <text x="150" y="418" text-anchor="middle" class="service-text">PostgreSQL RDS</text>

    <!-- Document Service -->
    <rect x="240" y="350" width="140" height="80" fill="#f0f9ff" stroke="#0284c7" stroke-width="2" rx="4"/>
    <text x="310" y="368" text-anchor="middle" class="label">Document Service</text>
    <text x="310" y="382" text-anchor="middle" class="service-text">Python/FastAPI</text>
    <text x="310" y="395" text-anchor="middle" class="service-text">5 pods</text>
    <rect x="255" y="405" width="110" height="18" fill="#e0f2fe" stroke="#0284c7" stroke-width="1" rx="2"/>
    <text x="310" y="418" text-anchor="middle" class="service-text">MongoDB Atlas</text>

    <!-- Biometric Service -->
    <rect x="400" y="350" width="140" height="80" fill="#f0f9ff" stroke="#0284c7" stroke-width="2" rx="4"/>
    <text x="470" y="368" text-anchor="middle" class="label">Biometric Service</text>
    <text x="470" y="382" text-anchor="middle" class="service-text">Go</text>
    <text x="470" y="395" text-anchor="middle" class="service-text">4 pods</text>
    <rect x="415" y="405" width="110" height="18" fill="#e0f2fe" stroke="#0284c7" stroke-width="1" rx="2"/>
    <text x="470" y="418" text-anchor="middle" class="service-text">DynamoDB</text>

    <!-- Notification Service -->
    <rect x="560" y="350" width="140" height="80" fill="#f0f9ff" stroke="#0284c7" stroke-width="2" rx="4"/>
    <text x="630" y="368" text-anchor="middle" class="label">Notification Svc</text>
    <text x="630" y="382" text-anchor="middle" class="service-text">Node.js</text>
    <text x="630" y="395" text-anchor="middle" class="service-text">2 pods</text>
    <text x="630" y="418" text-anchor="middle" class="service-text">(Stateless)</text>

    <!-- Audit Service -->
    <rect x="720" y="350" width="120" height="80" fill="#f0f9ff" stroke="#0284c7" stroke-width="2" rx="4"/>
    <text x="780" y="368" text-anchor="middle" class="label">Audit Service</text>
    <text x="780" y="382" text-anchor="middle" class="service-text">Python</text>
    <text x="780" y="395" text-anchor="middle" class="service-text">2 pods</text>
    <rect x="735" y="405" width="90" height="18" fill="#e0f2fe" stroke="#0284c7" stroke-width="1" rx="2"/>
    <text x="780" y="418" text-anchor="middle" class="service-text">PostgreSQL</text>
  </g>

  <!-- Message Queue -->
  <rect x="320" y="450" width="260" height="45" fill="#fef3c7" stroke="#d97706" stroke-width="2" rx="4"/>
  <text x="450" y="468" text-anchor="middle" class="label">Amazon SQS (Message Queue)</text>
  <text x="450" y="485" text-anchor="middle" class="text">Event-driven async messaging</text>

  <!-- Shared Services -->
  <rect x="80" y="510" width="760" height="50" fill="#f3e8ff" stroke="#9333ea" stroke-width="2" rx="4"/>
  <text x="450" y="530" text-anchor="middle" class="text">Redis ElastiCache • AWS Secrets Manager • CloudWatch • Prometheus + Grafana</text>

  <!-- Arrows -->
  <line x1="450" y1="140" x2="450" y2="160" stroke="#64748b" stroke-width="2" marker-end="url(#arrowhead)"/>
  <line x1="450" y1="220" x2="450" y2="240" stroke="#64748b" stroke-width="2" marker-end="url(#arrowhead)"/>
  <line x1="450" y1="290" x2="450" y2="310" stroke="#64748b" stroke-width="2" marker-end="url(#arrowhead)"/>

  <!-- mTLS indicator -->
  <line x1="220" y1="390" x2="240" y2="390" stroke="#10b981" stroke-width="2" stroke-dasharray="3,3"/>
  <line x1="380" y1="390" x2="400" y2="390" stroke="#10b981" stroke-width="2" stroke-dasharray="3,3"/>
  <line x1="540" y1="390" x2="560" y2="390" stroke="#10b981" stroke-width="2" stroke-dasharray="3,3"/>
  <line x1="700" y1="390" x2="720" y2="390" stroke="#10b981" stroke-width="2" stroke-dasharray="3,3"/>
  <text x="450" y="440" text-anchor="middle" class="text" fill="#10b981">← Istio mTLS Encryption →</text>

  <!-- Arrow marker -->
  <defs>
    <marker id="arrowhead" markerWidth="10" markerHeight="10" refX="5" refY="5" orient="auto">
      <polygon points="0 0, 10 5, 0 10" fill="#64748b"/>
    </marker>
  </defs>

  <!-- Footer -->
  <text x="450" y="595" text-anchor="middle" class="text">Attack Surface: Kong Gateway (CVE-2024-8912) • Compensating Controls: AWS WAF, Istio mTLS, Kubernetes Network Policies</text>
  <text x="450" y="615" text-anchor="middle" class="text">Containerized, Cloud-native, API Gateway pattern</text>
</svg>
