<svg xmlns="http://www.w3.org/2000/svg" viewBox="0 0 950 700">
  <defs>
    <style>
      .title { font-family: Arial, sans-serif; font-size: 20px; font-weight: bold; fill: #1e40af; }
      .subtitle { font-family: Arial, sans-serif; font-size: 14px; fill: #475569; }
      .label { font-family: Arial, sans-serif; font-size: 12px; fill: #1e293b; font-weight: 600; }
      .text { font-family: Arial, sans-serif; font-size: 10px; fill: #475569; }
      .zone-label { font-family: Arial, sans-serif; font-size: 12px; fill: #64748b; font-weight: 600; }
      .cve-label { font-family: monospace; font-size: 10px; fill: #dc2626; font-weight: bold; }
      .ml-label { font-family: Arial, sans-serif; font-size: 11px; fill: #7c3aed; font-weight: 600; }
    </style>
  </defs>

  <!-- Title -->
  <text x="475" y="30" text-anchor="middle" class="title">AI/ML System Architecture (Hybrid Microservices + ML)</text>
  <text x="475" y="50" text-anchor="middle" class="subtitle">Financial Transaction Fraud Detection System</text>

  <!-- External Zone -->
  <rect x="50" y="80" width="850" height="60" fill="#f1f5f9" stroke="#cbd5e1" stroke-width="2" rx="8"/>
  <text x="70" y="100" class="zone-label">EXTERNAL (Banks, Payment Processors, Merchants)</text>

  <!-- API Gateway -->
  <rect x="300" y="160" width="350" height="50" fill="#fef3c7" stroke="#d97706" stroke-width="2" rx="6"/>
  <text x="475" y="180" text-anchor="middle" class="label">Kong API Gateway + AWS WAF</text>
  <text x="475" y="195" text-anchor="middle" class="text">Rate Limiting (prevent model extraction) • OAuth 2.0</text>

  <!-- Kubernetes Cluster -->
  <rect x="50" y="230" width="850" height="410" fill="#dbeafe" stroke="#3b82f6" stroke-width="3" rx="8"/>
  <text x="70" y="250" class="zone-label">KUBERNETES CLUSTER (EKS) - ML WORKLOADS</text>

  <!-- Application Microservices -->
  <rect x="80" y="270" width="820" height="80" fill="#f0fdfa" stroke="#14b8a6" stroke-width="2" rx="6"/>
  <text x="100" y="290" class="label">APPLICATION MICROSERVICES</text>

  <rect x="100" y="300" width="180" height="40" fill="#fff" stroke="#14b8a6" stroke-width="1" rx="3"/>
  <text x="190" y="318" text-anchor="middle" class="text">Transaction API</text>
  <text x="190" y="332" text-anchor="middle" class="text">(Ingestion)</text>

  <rect x="300" y="300" width="180" height="40" fill="#fff" stroke="#14b8a6" stroke-width="1" rx="3"/>
  <text x="390" y="318" text-anchor="middle" class="text">Fraud Scoring Svc</text>
  <text x="390" y="332" text-anchor="middle" class="text">(Orchestration)</text>

  <rect x="500" y="300" width="180" height="40" fill="#fff" stroke="#14b8a6" stroke-width="1" rx="3"/>
  <text x="590" y="318" text-anchor="middle" class="text">Alert Service</text>
  <text x="590" y="332" text-anchor="middle" class="text">(Notifications)</text>

  <rect x="700" y="300" width="180" height="40" fill="#fff" stroke="#14b8a6" stroke-width="1" rx="3"/>
  <text x="790" y="318" text-anchor="middle" class="text">Analytics Service</text>
  <text x="790" y="332" text-anchor="middle" class="text">(Reporting)</text>

  <!-- ML Inference Layer -->
  <rect x="80" y="370" width="820" height="180" fill="#f5f3ff" stroke="#7c3aed" stroke-width="2" rx="6"/>
  <text x="100" y="390" class="ml-label">🧠 ML INFERENCE LAYER</text>

  <!-- Feature Engineering -->
  <rect x="100" y="400" width="780" height="35" fill="#ede9fe" stroke="#7c3aed" stroke-width="1" rx="4"/>
  <text x="490" y="418" text-anchor="middle" class="text">Feature Engineering Module • 147 features • AWS Feature Store • Redis Cache</text>

  <!-- ML Models -->
  <rect x="120" y="450" width="330" height="85" fill="#fff7ed" stroke="#f59e0b" stroke-width="2" rx="4"/>
  <text x="285" y="468" text-anchor="middle" class="label">ML Model Inference Service</text>
  <text x="180" y="485" class="text">Primary: XGBoost</text>
  <text x="180" y="500" class="text">(Fraud Score)</text>
  <text x="350" y="485" class="text">Secondary: LSTM</text>
  <text x="350" y="500" class="text">(Transaction Sequences)</text>
  <rect x="190" y="510" width="180" height="20" fill="#fef3c7" stroke="#f59e0b" stroke-width="1" rx="3"/>
  <text x="280" y="524" text-anchor="middle" class="text">Ensemble Combiner</text>

  <!-- CVE Label -->
  <rect x="470" y="455" width="120" height="20" fill="#fee2e2" stroke="#dc2626" stroke-width="1.5" rx="3"/>
  <text x="530" y="469" text-anchor="middle" class="cve-label">CVE-2024-7821</text>
  <text x="530" y="490" text-anchor="middle" class="text" fill="#dc2626">TensorFlow Serving v2.12</text>

  <!-- Decision Engine -->
  <rect x="600" y="450" width="260" height="85" fill="#ecfdf5" stroke="#10b981" stroke-width="2" rx="4"/>
  <text x="730" y="468" text-anchor="middle" class="label">Decision Engine</text>
  <text x="730" y="485" text-anchor="middle" class="text">Score > 0.75 → Block</text>
  <text x="730" y="500" text-anchor="middle" class="text">0.50-0.75 → Review</text>
  <text x="730" y="515" text-anchor="middle" class="text">< 0.50 → Approve</text>

  <!-- Data Infrastructure -->
  <rect x="80" y="565" width="820" height="65" fill="#f3f4f6" stroke="#6b7280" stroke-width="2" rx="6"/>
  <text x="100" y="585" class="label">DATA INFRASTRUCTURE</text>
  <text x="490" y="605" text-anchor="middle" class="text">PostgreSQL (Transactions) • Kafka (Real-time Stream) • Redis (Cache) • S3 (Training Data)</text>

  <!-- ML Training Pipeline (Offline) -->
  <rect x="50" y="660" width="850" height="30" fill="#f3e8ff" stroke="#9333ea" stroke-width="2" rx="6"/>
  <text x="475" y="680" text-anchor="middle" class="text">🔄 ML TRAINING PIPELINE (AWS SageMaker): Weekly Retraining • A/B Testing • MLflow Model Registry</text>

  <!-- Arrows -->
  <line x1="475" y1="140" x2="475" y2="160" stroke="#64748b" stroke-width="2" marker-end="url(#arrowhead)"/>
  <line x1="475" y1="210" x2="475" y2="230" stroke="#64748b" stroke-width="2" marker-end="url(#arrowhead)"/>
  <line x1="390" y1="340" x2="390" y2="370" stroke="#64748b" stroke-width="2" marker-end="url(#arrowhead)"/>
  <line x1="490" y1="435" x2="490" y2="450" stroke="#7c3aed" stroke-width="2" marker-end="url(#arrowhead-purple)"/>

  <!-- Arrow markers -->
  <defs>
    <marker id="arrowhead" markerWidth="10" markerHeight="10" refX="5" refY="5" orient="auto">
      <polygon points="0 0, 10 5, 0 10" fill="#64748b"/>
    </marker>
    <marker id="arrowhead-purple" markerWidth="10" markerHeight="10" refX="5" refY="5" orient="auto">
      <polygon points="0 0, 10 5, 0 10" fill="#7c3aed"/>
    </marker>
  </defs>
</svg>
